<svg xmlns="http://www.w3.org/2000/svg" width="793.701" height="1122.52" viewBox="0 0 595.276 841.89"><path d="M222.873 468.623c1.646 5.98 5.035 8.922 10.166 8.922 5.132 0 8.52-2.941 10.167-8.922l16.265-57.646h-14.717l-11.715 45.686-11.715-45.686h-11.642c2.717 6.01 4.559 12.775 5.297 19.65.387 3.598.472 7.235.225 10.818zm52.477-57.646h-13.942v65.685h13.942zm38.728 52.254h-18.977v-52.254H281.16v55.293c0 5.883 4.744 10.392 10.554 10.392h22.365zm36.308 0h-18.977v-52.254h-13.942v55.293c0 5.883 4.744 10.392 10.553 10.392h22.366zm54.8 13.431-15.975-55.685c-1.452-4.804-3.292-7.941-5.325-9.215-2.033-1.47-3.389-1.667-5.422-1.667-3.389 0-7.843.784-10.844 10.882l-15.975 55.685h14.716l3.389-12.647h17.428l3.292 12.647zm-21.397-25.195h-10.747l5.422-20.49zm53.348-40.49c-10.36 0-18.686 3.138-25.173 9.51-6.487 6.372-9.682 14.313-9.682 24.019 0 9.02 3.195 16.666 9.585 22.843 6.487 6.176 14.33 9.313 23.624 9.313h2.324c8.133 0 10.36-4.411 10.36-11.372v-29.313h-13.942v27.254c-4.841 0-9.101-1.764-12.78-5.196-3.583-3.529-5.422-8.039-5.422-13.431 0-14.607 11.23-20.195 20.428-20.195h5.035v-13.432zm16.363 55.391c0 5.49 4.357 10.294 10.457 10.294h22.752v-13.431h-19.267v-15h18.3v-12.548h-18.3v-11.274h19.267v-13.432h-22.752c-2.711 0-5.132.98-7.262 2.941-2.13 1.961-3.195 4.412-3.195 7.353zM231.62 402.14c1.215 3.432 3.443 5.196 6.582 5.196 3.14 0 5.367-1.764 6.582-5.196l11.342-34.019v38.333h13.671V350.18c0-6.667-4.76-10.294-9.721-10.294-5.165 0-8.608 2.94-10.532 8.823l-11.342 34.51-11.342-34.51c-1.924-5.882-5.367-8.823-10.532-8.823-4.962 0-9.72 3.627-9.72 10.294v26.155c2.62-.94 3.996-1.071 6.803-.576.707 2.55.54 4.084-.118 5.395-1.403 2.793-4.754 5.366-6.686 7.903v16.066c.265.437.526.88.78 1.33h12.89V368.12zm53.469-4.608c6.784 6.569 14.987 9.804 24.607 9.804s17.823-3.235 24.608-9.804c6.785-6.568 10.228-14.607 10.228-23.92 0-9.314-3.443-17.255-10.228-23.823-6.785-6.57-14.988-9.902-24.608-9.902-9.62 0-17.823 3.333-24.608 9.902-6.785 6.568-10.227 14.509-10.227 23.823 0 9.313 3.442 17.352 10.228 23.92zm24.607-4.313c-5.57 0-10.33-1.863-14.279-5.686-3.949-3.824-5.974-8.53-5.974-13.921 0-5.392 2.025-10 5.974-13.824 3.95-3.823 8.71-5.784 14.28-5.784 5.569 0 10.43 1.96 14.379 5.784 3.95 3.824 5.975 8.432 5.975 13.824 0 5.391-2.026 10.097-5.975 13.92-3.95 3.824-8.81 5.687-14.38 5.687zm65.317 14.117c7.595 0 13.67-2.254 18.329-6.764 4.658-4.608 6.987-10.686 6.987-18.235v-41.568h-14.582v41.568c.81 15.49-22.279 15.49-21.57 0v-41.568h-14.582v41.568c0 7.549 2.329 13.627 6.987 18.235 4.658 4.51 10.836 6.764 18.43 6.764zm49.418 0c6.785 0 12.455-1.764 16.81-5.392 4.355-3.627 6.582-8.725 6.582-15.195 0-9.51-5.367-15.784-16-18.824l-5.469-1.568c-4.759-1.373-7.19-3.628-7.19-6.667 0-4.411 4.355-7.255 9.621-7.255 2.532 0 5.165.393 7.696 1.177 2.633.784 4.355 1.373 5.165 1.863l2.025 1.176v-14.117c-5.367-1.765-10.734-2.647-16.304-2.647-6.177 0-11.544 1.764-16.101 5.294-4.456 3.431-6.684 8.039-6.684 13.823 0 7.549 4.355 13.823 8.507 16.568 2.127 1.373 4.455 2.353 6.785 3.04l6.48 1.764c4.558 1.176 6.887 3.53 6.887 7.059 0 3.921-3.646 6.47-8.81 6.47-6.279 0-12.456-1.568-18.532-4.803v14.117l2.228 1.078c2.936 1.275 9.823 3.04 16.304 3.04zm27.544-11.176c0 5.49 4.557 10.294 10.937 10.294h23.798v-13.431h-20.153v-15h19.14v-12.549h-19.14V354.2h20.152v-13.43h-23.797c-2.835 0-5.367.98-7.595 2.94-2.228 1.96-3.342 4.412-3.342 7.353zm-310.652-9.779c1.36-1.39 2.18-2.441 3.058-3.782-.587 5.575-5.388 10.22-10.642 11.903-5.655 1.81-10.785-.002-13.617-1.218-.11.269-1.381 3.598-1.493 3.867-8.034 19.33-18.567 38.532-.273 55.406 8.387 7.737 20.85 12.418 30.901 12.524 9.637.102 22.992-3.958 31.917-11.94 15.286-13.67 10.464-45.176-.917-58.102-5.79.677-10.532.878-15.734-2.374-3.873-2.421-6.767-8.126-6.928-10.17 1.837 2.442 6.23 6.56 8.146 7.576 10.573 5.603 27.047.66 25.444-9.898-.941-6.2-11.366-9.968-17.686-12.224-2.572-.919-3.698-.645-4.358-3.242-1.451-5.71-8.873-26.001-19.16-26.137-10.7-.14-16.813 18.041-19.65 26.749-1.05 3.22-.505 2.005-3.976 3.614-3.378 1.566-11.9 3.605-14.338 8.538-5.052 10.225 16.061 22.455 29.306 8.91zm-1.288-28.356a2.591 2.591 0 1 1 0 5.183 2.591 2.591 0 0 1 0-5.183zm19.591-.007a2.592 2.592 0 1 1 0 5.184 2.592 2.592 0 0 1 0-5.184zm-11.445 111.064c.021.863.683 1.771 1.36 2.504 9.476 10.271 28.533 8.886 39.654 3.576 8.728-4.168 16.042-11.186 19.52-20.039 5.97-15.202 2.966-34.967-5.188-48.285-10.813-17.66 8.048-24.586 7.112-27.956-2.679-.473-7.82 4.533-10.648 8.523-4.9 6.915-3.052 14.043.54 21.17 2.12 4.207 3.909 9.345 5.095 13.872 2.88 10.986 2.467 23.015-2.842 33.222-6.196 11.91-18.193 17.395-31.134 17.694-3.94.091-11.076-1.06-14.376-3.359-3.803-2.648-2.274-.881-9.093-.922" fill="#1a1a18" data-name="Capa 1"/></svg>