<?xml version="1.0" encoding="UTF-8"?>
<svg xmlns="http://www.w3.org/2000/svg" xmlns:xlink="http://www.w3.org/1999/xlink" width="2000px" height="2829px" viewBox="0 0 2000 2828" version="1.1">
<g id="surface1">
<path style=" stroke:none;fill-rule:nonzero;fill:rgb(10.196078%,10.196078%,9.411765%);fill-opacity:1;" d="M 748.523438 1573.484375 C 754.050781 1593.5625 765.433594 1603.441406 782.667969 1603.441406 C 799.902344 1603.441406 811.28125 1593.566406 816.8125 1573.484375 L 871.4375 1379.925781 L 822.011719 1379.925781 L 782.667969 1533.324219 L 743.320312 1379.925781 L 704.222656 1379.925781 C 713.347656 1400.105469 719.53125 1422.820312 722.011719 1445.90625 C 723.3125 1457.984375 723.597656 1470.199219 722.765625 1482.226562 Z M 924.769531 1379.925781 L 877.945312 1379.925781 L 877.945312 1600.476562 L 924.769531 1600.476562 Z M 1054.835938 1555.378906 L 991.101562 1555.378906 L 991.101562 1379.925781 L 944.28125 1379.925781 L 944.28125 1565.582031 C 944.28125 1585.335938 960.214844 1600.476562 979.726562 1600.476562 L 1054.839844 1600.476562 Z M 1176.777344 1555.378906 L 1113.042969 1555.378906 L 1113.042969 1379.925781 L 1066.21875 1379.925781 L 1066.21875 1565.582031 C 1066.21875 1585.335938 1082.152344 1600.476562 1101.660156 1600.476562 L 1176.777344 1600.476562 Z M 1360.824219 1600.476562 L 1307.171875 1413.503906 C 1302.296875 1397.371094 1296.117188 1386.839844 1289.289062 1382.5625 C 1282.460938 1377.625 1277.90625 1376.964844 1271.078125 1376.964844 C 1259.695312 1376.964844 1244.738281 1379.597656 1234.660156 1413.503906 L 1181.007812 1600.476562 L 1230.429688 1600.476562 L 1241.8125 1558.011719 L 1300.34375 1558.011719 L 1311.402344 1600.476562 Z M 1288.964844 1515.878906 L 1252.871094 1515.878906 L 1271.078125 1447.078125 Z M 1468.132812 1379.925781 C 1433.339844 1379.925781 1405.375 1390.460938 1383.589844 1411.859375 C 1361.804688 1433.253906 1351.074219 1459.917969 1351.074219 1492.503906 C 1351.074219 1522.792969 1361.804688 1548.464844 1383.265625 1569.203125 C 1405.050781 1589.941406 1431.390625 1600.476562 1462.605469 1600.476562 L 1470.410156 1600.476562 C 1497.726562 1600.476562 1505.203125 1585.664062 1505.203125 1562.292969 L 1505.203125 1463.867188 L 1458.378906 1463.867188 L 1458.378906 1555.378906 C 1442.121094 1555.378906 1427.816406 1549.457031 1415.457031 1537.933594 C 1403.425781 1526.082031 1397.25 1510.9375 1397.25 1492.835938 C 1397.25 1443.789062 1434.964844 1425.027344 1465.855469 1425.027344 L 1482.765625 1425.027344 L 1482.765625 1379.925781 Z M 1523.089844 1565.910156 C 1523.089844 1584.34375 1537.722656 1600.476562 1558.210938 1600.476562 L 1634.621094 1600.476562 L 1634.621094 1555.378906 L 1569.914062 1555.378906 L 1569.914062 1505.011719 L 1631.375 1505.011719 L 1631.375 1462.882812 L 1569.914062 1462.882812 L 1569.914062 1425.027344 L 1634.621094 1425.027344 L 1634.621094 1379.925781 L 1558.210938 1379.925781 C 1549.105469 1379.925781 1540.972656 1383.21875 1533.820312 1389.800781 C 1526.667969 1396.386719 1523.089844 1404.617188 1523.089844 1414.488281 Z M 777.902344 1350.253906 C 781.980469 1361.777344 789.464844 1367.699219 800.007812 1367.699219 C 810.550781 1367.699219 818.03125 1361.777344 822.113281 1350.253906 L 860.203125 1236.03125 L 860.203125 1364.738281 L 906.117188 1364.738281 L 906.117188 1175.789062 C 906.117188 1153.40625 890.132812 1141.226562 873.46875 1141.226562 C 856.125 1141.226562 844.558594 1151.097656 838.097656 1170.851562 L 800.007812 1286.722656 L 761.914062 1170.851562 C 755.453125 1151.101562 743.890625 1141.226562 726.542969 1141.226562 C 709.878906 1141.226562 693.898438 1153.40625 693.898438 1175.789062 L 693.898438 1263.609375 C 702.695312 1260.453125 707.316406 1260.015625 716.746094 1261.675781 C 719.121094 1270.238281 718.558594 1275.386719 716.347656 1279.789062 C 711.636719 1289.167969 700.382812 1297.808594 693.894531 1306.328125 L 693.894531 1360.269531 C 694.785156 1361.738281 695.660156 1363.226562 696.511719 1364.734375 L 739.804688 1364.734375 L 739.804688 1236.027344 Z M 957.476562 1334.78125 C 980.261719 1356.839844 1007.8125 1367.699219 1040.121094 1367.699219 C 1072.429688 1367.699219 1099.980469 1356.839844 1122.765625 1334.78125 C 1145.554688 1312.730469 1157.117188 1285.738281 1157.117188 1254.46875 C 1157.117188 1223.195312 1145.554688 1196.53125 1122.765625 1174.476562 C 1099.980469 1152.417969 1072.429688 1141.230469 1040.121094 1141.230469 C 1007.8125 1141.230469 980.261719 1152.421875 957.472656 1174.476562 C 934.6875 1196.53125 923.125 1223.195312 923.125 1254.46875 C 923.125 1285.738281 934.6875 1312.730469 957.476562 1334.78125 Z M 1040.121094 1320.300781 C 1021.414062 1320.300781 1005.425781 1314.046875 992.164062 1301.210938 C 978.902344 1288.371094 972.101562 1272.566406 972.101562 1254.46875 C 972.101562 1236.363281 978.902344 1220.890625 992.164062 1208.050781 C 1005.429688 1195.214844 1021.417969 1188.628906 1040.125 1188.628906 C 1058.828125 1188.628906 1075.152344 1195.210938 1088.414062 1208.050781 C 1101.683594 1220.890625 1108.484375 1236.363281 1108.484375 1254.46875 C 1108.484375 1272.566406 1101.679688 1288.371094 1088.414062 1301.207031 C 1075.148438 1314.046875 1058.828125 1320.300781 1040.121094 1320.300781 Z M 1259.488281 1367.699219 C 1284.996094 1367.699219 1305.398438 1360.132812 1321.046875 1344.988281 C 1336.691406 1329.519531 1344.511719 1309.109375 1344.511719 1283.761719 L 1344.511719 1144.191406 L 1295.539062 1144.191406 L 1295.539062 1283.761719 C 1298.257812 1335.773438 1220.714844 1335.773438 1223.097656 1283.761719 L 1223.097656 1144.191406 L 1174.121094 1144.191406 L 1174.121094 1283.761719 C 1174.121094 1309.109375 1181.945312 1329.519531 1197.589844 1344.988281 C 1213.230469 1360.132812 1233.980469 1367.699219 1259.484375 1367.699219 Z M 1425.460938 1367.699219 C 1448.246094 1367.699219 1467.289062 1361.777344 1481.917969 1349.597656 C 1496.542969 1337.417969 1504.023438 1320.300781 1504.023438 1298.578125 C 1504.023438 1266.644531 1485.996094 1245.578125 1450.285156 1235.371094 L 1431.917969 1230.105469 C 1415.9375 1225.496094 1407.769531 1217.925781 1407.769531 1207.722656 C 1407.769531 1192.910156 1422.398438 1183.363281 1440.082031 1183.363281 C 1448.585938 1183.363281 1457.429688 1184.679688 1465.929688 1187.3125 C 1474.773438 1189.945312 1480.558594 1191.921875 1483.277344 1193.570312 L 1490.078125 1197.515625 L 1490.078125 1150.117188 C 1472.054688 1144.191406 1454.027344 1141.230469 1435.320312 1141.230469 C 1414.574219 1141.230469 1396.550781 1147.152344 1381.246094 1159.003906 C 1366.28125 1170.523438 1358.796875 1185.996094 1358.796875 1205.417969 C 1358.796875 1230.765625 1373.421875 1251.832031 1387.367188 1261.046875 C 1394.511719 1265.65625 1402.332031 1268.949219 1410.15625 1271.253906 L 1431.917969 1277.179688 C 1447.226562 1281.125 1455.050781 1289.03125 1455.050781 1300.878906 C 1455.050781 1314.046875 1442.804688 1322.605469 1425.460938 1322.605469 C 1404.371094 1322.605469 1383.625 1317.339844 1363.21875 1306.476562 L 1363.21875 1353.878906 L 1370.703125 1357.496094 C 1380.5625 1361.777344 1403.695312 1367.703125 1425.460938 1367.703125 Z M 1517.96875 1330.175781 C 1517.96875 1348.609375 1533.273438 1364.738281 1554.699219 1364.738281 L 1634.625 1364.738281 L 1634.625 1319.644531 L 1566.941406 1319.644531 L 1566.941406 1269.277344 L 1631.222656 1269.277344 L 1631.222656 1227.140625 L 1566.941406 1227.140625 L 1566.941406 1189.289062 L 1634.621094 1189.289062 L 1634.621094 1144.195312 L 1554.699219 1144.195312 C 1545.179688 1144.195312 1536.675781 1147.484375 1529.191406 1154.066406 C 1521.707031 1160.648438 1517.96875 1168.878906 1517.96875 1178.753906 Z M 474.636719 1297.339844 C 479.203125 1292.675781 481.957031 1289.144531 484.90625 1284.640625 C 482.933594 1303.363281 466.8125 1318.957031 449.164062 1324.609375 C 430.171875 1330.6875 412.945312 1324.601562 403.433594 1320.519531 C 403.0625 1321.421875 398.792969 1332.601562 398.417969 1333.503906 C 371.4375 1398.40625 336.058594 1462.882812 397.5 1519.539062 C 425.667969 1545.515625 467.527344 1561.234375 501.28125 1561.589844 C 533.648438 1561.933594 578.5 1548.300781 608.476562 1521.5 C 659.816406 1475.601562 643.621094 1369.8125 605.398438 1326.410156 C 585.949219 1328.683594 570.023438 1329.359375 552.554688 1318.441406 C 539.546875 1310.3125 529.828125 1291.15625 529.285156 1284.292969 C 535.457031 1292.492188 550.210938 1306.320312 556.644531 1309.730469 C 592.152344 1328.542969 647.484375 1311.945312 642.097656 1276.496094 C 638.9375 1255.679688 603.925781 1243.027344 582.699219 1235.453125 C 574.0625 1232.367188 570.28125 1233.285156 568.0625 1224.566406 C 563.191406 1205.394531 538.261719 1137.265625 503.714844 1136.808594 C 467.777344 1136.335938 447.246094 1197.382812 437.71875 1226.621094 C 434.191406 1237.433594 436.023438 1233.355469 424.367188 1238.757812 C 413.019531 1244.015625 384.398438 1250.859375 376.210938 1267.425781 C 359.246094 1301.757812 430.152344 1342.820312 474.636719 1297.339844 Z M 470.308594 1202.132812 C 475.117188 1202.132812 479.015625 1206.027344 479.015625 1210.832031 C 479.015625 1215.636719 475.117188 1219.535156 470.308594 1219.535156 C 465.503906 1219.535156 461.605469 1215.636719 461.605469 1210.832031 C 461.605469 1206.027344 465.503906 1202.132812 470.308594 1202.132812 Z M 536.105469 1202.109375 C 540.914062 1202.109375 544.8125 1206.003906 544.8125 1210.808594 C 544.8125 1215.617188 540.914062 1219.511719 536.105469 1219.511719 C 531.300781 1219.511719 527.402344 1215.617188 527.402344 1210.808594 C 527.402344 1206.003906 531.300781 1202.109375 536.105469 1202.109375 Z M 497.667969 1575.023438 C 497.738281 1577.921875 499.960938 1580.96875 502.238281 1583.429688 C 534.0625 1617.917969 598.066406 1613.269531 635.414062 1595.4375 C 664.730469 1581.445312 689.292969 1557.878906 700.972656 1528.152344 C 721.023438 1477.109375 710.933594 1410.746094 683.550781 1366.027344 C 647.234375 1306.734375 710.578125 1283.476562 707.433594 1272.160156 C 698.4375 1270.574219 681.171875 1287.382812 671.675781 1300.78125 C 655.21875 1323.996094 661.421875 1347.929688 673.488281 1371.859375 C 680.609375 1385.988281 686.617188 1403.238281 690.597656 1418.4375 C 700.273438 1455.328125 698.882812 1495.714844 681.054688 1529.988281 C 660.246094 1569.976562 619.953125 1588.394531 576.488281 1589.398438 C 563.257812 1589.703125 539.292969 1585.839844 528.207031 1578.121094 C 515.4375 1569.226562 520.570312 1575.160156 497.667969 1575.023438 "/>
</g>
</svg>
